<svg width="14" height="15" viewBox="0 0 14 15" fill="none" xmlns="http://www.w3.org/2000/svg">
<g clip-path="url(#clip0_814_1171)">
<path fill-rule="evenodd" clip-rule="evenodd" d="M13.9682 6.35076C14.1835 3.89715 11.0884 1.86246 7.24637 1.86246C3.40434 1.86246 0.309194 3.89715 0.524509 6.35076H13.9682Z" fill="black"/>
<path fill-rule="evenodd" clip-rule="evenodd" d="M2.77042 8.4079C3.14089 8.4079 3.29581 8.51263 3.54503 8.6772C3.84815 8.87918 4.26577 9.15595 5.01344 9.15595C5.76112 9.15595 6.17874 8.87918 6.48185 8.6772C6.73108 8.50515 6.87926 8.4079 7.25647 8.4079C7.62694 8.4079 7.78186 8.51263 8.03109 8.6772C8.3342 8.87918 8.75182 9.15595 9.4995 9.15595C10.2472 9.15595 10.6648 8.87918 10.9679 8.6772C11.2171 8.50515 11.3653 8.4079 11.7425 8.4079C12.113 8.4079 12.2679 8.51263 12.5171 8.6772C12.8203 8.87918 13.2379 9.14847 13.9788 9.15595V7.67482C13.9788 7.67482 13.4467 7.55513 13.1975 7.39056C12.8944 7.18858 12.4767 6.9118 11.7291 6.9118C10.9814 6.9118 10.5638 7.18858 10.2606 7.39056C10.0114 7.56261 9.8565 7.65985 9.48603 7.65985C9.11556 7.65985 8.96063 7.55513 8.71141 7.39056C8.4083 7.18858 7.99067 6.9118 7.243 6.9118C6.49532 6.9118 6.0777 7.18858 5.77459 7.39056C5.52537 7.56261 5.37718 7.65985 4.99997 7.65985C4.6295 7.65985 4.47458 7.55513 4.22535 7.39056C3.92224 7.18858 3.50462 6.9118 2.75694 6.9118C2.00927 6.9118 1.59165 7.18858 1.28854 7.39056C1.03931 7.56261 0.891122 7.65985 0.513916 7.65985V9.15595C1.26159 9.15595 1.67921 8.87918 2.00253 8.6772C2.25176 8.50515 2.39995 8.4079 2.77042 8.4079Z" fill="black"/>
<path fill-rule="evenodd" clip-rule="evenodd" d="M0.513916 10.278V11.6806C0.513916 12.452 1.11984 13.0832 1.86041 13.0832H12.6323C13.3729 13.0832 13.9788 12.452 13.9788 11.6806V10.278H0.513916Z" fill="black"/>
</g>
<defs>
<clipPath id="clip0_814_1171">
<rect width="13.4649" height="13.4649" fill="white" transform="translate(0.513916 0.740387)"/>
</clipPath>
</defs>
</svg>
