<svg width="12" height="15" viewBox="0 0 12 15" fill="none" xmlns="http://www.w3.org/2000/svg">
<path d="M10.2461 3.29431H8.84354C8.84354 1.80643 7.58822 0.601326 6.03835 0.601326C4.48849 0.601326 3.23317 1.80643 3.23317 3.29431H1.83057C1.05915 3.29431 0.427979 3.90023 0.427979 4.6408V12.7197C0.427979 13.4603 1.05915 14.0662 1.83057 14.0662H10.2461C11.0176 14.0662 11.6487 13.4603 11.6487 12.7197V4.6408C11.6487 3.90023 11.0176 3.29431 10.2461 3.29431ZM4.63576 5.98729C4.63576 6.35757 4.32018 6.66053 3.93446 6.66053C3.54875 6.66053 3.23317 6.35757 3.23317 5.98729V4.6408H4.63576V5.98729ZM6.03835 1.94782C6.80978 1.94782 7.44095 2.55374 7.44095 3.29431H4.63576C4.63576 2.55374 5.26693 1.94782 6.03835 1.94782ZM8.84354 5.98729C8.84354 6.35757 8.52796 6.66053 8.14224 6.66053C7.75653 6.66053 7.44095 6.35757 7.44095 5.98729V4.6408H8.84354V5.98729Z" fill="black"/>
</svg>
