<svg width="14" height="15" viewBox="0 0 14 15" fill="none" xmlns="http://www.w3.org/2000/svg">
<path d="M4.55339 11.4342C3.81282 11.4342 3.21363 12.0401 3.21363 12.7807C3.21363 13.5212 3.81282 14.1272 4.55339 14.1272C5.29396 14.1272 5.89988 13.5212 5.89988 12.7807C5.89988 12.0401 5.29396 11.4342 4.55339 11.4342ZM0.513916 0.662254V2.00874H1.86041L4.28409 7.11867L3.37521 8.76812C3.26749 8.95663 3.2069 9.1788 3.2069 9.41444C3.2069 10.155 3.81282 10.7609 4.55339 10.7609H12.6323V9.41444H4.83615C4.7419 9.41444 4.66784 9.34038 4.66784 9.24613L4.68804 9.16534L5.29396 8.06795H10.3096C10.8146 8.06795 11.2589 7.79192 11.4878 7.37451L13.898 3.00515C13.9519 2.91089 13.9788 2.79644 13.9788 2.68199C13.9788 2.3117 13.6759 2.00874 13.3056 2.00874H3.34828L2.71543 0.662254H0.513916ZM11.2858 11.4342C10.5453 11.4342 9.94608 12.0401 9.94608 12.7807C9.94608 13.5212 10.5453 14.1272 11.2858 14.1272C12.0264 14.1272 12.6323 13.5212 12.6323 12.7807C12.6323 12.0401 12.0264 11.4342 11.2858 11.4342Z" fill="black"/>
</svg>
