<svg width="14" height="14" viewBox="0 0 14 14" fill="none" xmlns="http://www.w3.org/2000/svg">
<path d="M12.2149 1.53301C12.0653 1.07787 11.6463 0.753868 11.1526 0.753868H2.92408C2.43037 0.753868 2.01894 1.07787 1.86185 1.53301L0.305908 6.15385V12.3253C0.305908 12.7496 0.642531 13.0967 1.05396 13.0967H1.80201C2.21344 13.0967 2.55006 12.7496 2.55006 12.3253V11.5538H11.5267V12.3253C11.5267 12.7496 11.8633 13.0967 12.2747 13.0967H13.0228C13.4342 13.0967 13.7708 12.7496 13.7708 12.3253V6.15385L12.2149 1.53301ZM2.92408 9.23956C2.3032 9.23956 1.80201 8.7227 1.80201 8.08242C1.80201 7.44214 2.3032 6.92528 2.92408 6.92528C3.54496 6.92528 4.04616 7.44214 4.04616 8.08242C4.04616 8.7227 3.54496 9.23956 2.92408 9.23956ZM11.1526 9.23956C10.5318 9.23956 10.0306 8.7227 10.0306 8.08242C10.0306 7.44214 10.5318 6.92528 11.1526 6.92528C11.7735 6.92528 12.2747 7.44214 12.2747 8.08242C12.2747 8.7227 11.7735 9.23956 11.1526 9.23956ZM1.80201 5.38243L2.92408 1.91101H11.1526L12.2747 5.38243H1.80201Z" fill="black"/>
</svg>
