<svg width="13" height="11" viewBox="0 0 13 11" fill="none" xmlns="http://www.w3.org/2000/svg">
<path d="M12.5 2.90013V10.3001C12.5 10.4106 12.4105 10.5001 12.3 10.5001H0.7C0.589543 10.5001 0.5 10.4106 0.5 10.3001V2.90013C0.5 2.78968 0.589543 2.70013 0.7 2.70013H3.3C3.96274 2.70013 4.5 2.16288 4.5 1.50013V0.700134C4.5 0.589677 4.58954 0.500134 4.7 0.500134H6.5H8.3C8.41046 0.500134 8.5 0.589678 8.5 0.700134V1.50013C8.5 2.16288 9.03726 2.70013 9.7 2.70013H12.3C12.4105 2.70013 12.5 2.78968 12.5 2.90013Z" stroke="black"/>
<path d="M0 2.7C0 2.42386 0.223858 2.2 0.5 2.2H12.5C12.7761 2.2 13 2.42385 13 2.7V10.5C13 10.7761 12.7761 11 12.5 11H0.5C0.223858 11 0 10.7761 0 10.5V2.7Z" fill="black"/>
<path d="M0 4.3957H5.29999C5.41045 4.3957 5.49999 4.30616 5.49999 4.1957V4.0457C5.49999 3.93525 5.58953 3.8457 5.69999 3.8457H6.49999H7.29999C7.41044 3.8457 7.49999 3.93525 7.49999 4.0457V4.1957C7.49999 4.30616 7.58953 4.3957 7.69999 4.3957H13V4.9457H7.69999C7.58953 4.9457 7.49999 5.03525 7.49999 5.1457V5.8457C7.49999 5.95616 7.41044 6.0457 7.29999 6.0457H6.49999H5.69999C5.58953 6.0457 5.49999 5.95616 5.49999 5.8457V5.1457C5.49999 5.03525 5.41045 4.9457 5.29999 4.9457H0V4.3957Z" fill="white"/>
</svg>
