<svg width="137" height="153" viewBox="0 0 137 153" fill="none" xmlns="http://www.w3.org/2000/svg">
<path d="M0 7C0 3.13401 3.13401 0 7 0H130C133.866 0 137 3.13401 137 7V26C137 29.866 133.866 33 130 33H7C3.13401 33 0 29.866 0 26V7Z" fill="white"/>
<path d="M0 43C0 39.134 3.13401 36 7 36H73C76.866 36 80 39.134 80 43V62C80 65.866 76.866 69 73 69H7C3.134 69 0 65.866 0 62V43Z" fill="white"/>
<path d="M25 73C28.866 73 32 76.134 32 80L32 146C32 149.866 28.866 153 25 153L7 153C3.13401 153 4.54778e-07 149.866 6.23766e-07 146L3.50872e-06 80C3.67771e-06 76.134 3.13401 73 7 73L25 73Z" fill="white"/>
<path d="M110.046 86C119.962 86 128 94.0384 128 103.954L128 139C128 146.732 121.732 153 114 153V153C106.268 153 100 146.732 100 139L100 91C100 88.2386 102.239 86 105 86L110.046 86Z" fill="white"/>
<rect x="130" y="50" width="32" height="32" rx="16" transform="rotate(90 130 50)" fill="white"/>
</svg>
